<svg xmlns="http://www.w3.org/2000/svg" width="44" height="44" viewBox="0 0 44 44">
  <path d="M16.6158963,20.2052988 L13.0264938,20.2052988 L13.0264938,23.7947012 L16.6158963,23.7947012 L16.6158963,20.2052988 Z M23.7947012,20.2052988 L20.2052988,20.2052988 L20.2052988,23.7947012 L23.7947012,23.7947012 L23.7947012,20.2052988 Z M30.9735062,20.2052988 L27.3841037,20.2052988 L27.3841037,23.7947012 L30.9735062,23.7947012 L30.9735062,20.2052988 Z M34.5629087,7.64239005 L32.7682075,7.64239005 L32.7682075,4.05298756 L29.178805,4.05298756 L29.178805,7.64239005 L14.821195,7.64239005 L14.821195,4.05298756 L11.2317925,4.05298756 L11.2317925,7.64239005 L9.43709129,7.64239005 C7.44497291,7.64239005 5.86563581,9.25762117 5.86563581,11.2317925 L5.8476888,36.35761 C5.8476888,38.3317813 7.44497291,39.9470124 9.43709129,39.9470124 L34.5629087,39.9470124 C36.5370801,39.9470124 38.1523112,38.3317813 38.1523112,36.35761 L38.1523112,11.2317925 C38.1523112,9.25762117 36.5370801,7.64239005 34.5629087,7.64239005 Z M34.5629087,36.35761 L9.43709129,36.35761 L9.43709129,16.6158963 L34.5629087,16.6158963 L34.5629087,36.35761 Z"/>
</svg>
