<svg xmlns="http://www.w3.org/2000/svg" width="44" height="44" viewBox="0 0 44 44">
  <path d="M18.4891667,28.5725 L21.0833333,31.1666667 L30.25,22 L21.0833333,12.8333333 L18.4891667,15.4275 L23.2283333,20.1666667 L5.5,20.1666667 L5.5,23.8333333 L23.2283333,23.8333333 L18.4891667,28.5725 Z M34.8333333,5.5 L9.16666667,5.5 C7.14083333,5.5 5.5,7.14083333 5.5,9.16666667 L5.5,16.5 L9.16666667,16.5 L9.16666667,9.16666667 L34.8333333,9.16666667 L34.8333333,34.8333333 L9.16666667,34.8333333 L9.16666667,27.5 L5.5,27.5 L5.5,34.8333333 C5.5,36.8591667 7.14083333,38.5 9.16666667,38.5 L34.8333333,38.5 C36.8591667,38.5 38.5,36.8591667 38.5,34.8333333 L38.5,9.16666667 C38.5,7.14083333 36.8591667,5.5 34.8333333,5.5 Z"/>
</svg>
