<svg xmlns="http://www.w3.org/2000/svg" width="44" height="44" viewBox="0 0 44 44">
  <path fill-rule="evenodd" d="M22.3712188,13.4134011 C17.6414477,13.4134011 13.7224946,17.2647861 13.7224946,22.0621253 C13.7224946,26.8594646 17.5738796,30.7108496 22.3712188,30.7108496 C27.168558,30.7108496 31.019943,26.7918964 31.019943,22.0621253 C31.019943,17.3323543 27.1009899,13.4134011 22.3712188,13.4134011 Z M36.4253957,8.07551662 C38.1821678,9.83228873 39.128122,12.2647424 39.128122,15.1026051 L39.128122,29.0216456 C39.128122,31.9270764 38.1821678,34.4270983 36.3578275,36.1838704 C34.6010554,37.8730743 32.1686017,38.8190285 29.2631709,38.8190285 L15.4792667,38.8190285 C12.7089722,38.8190285 10.2765185,37.9406425 8.45217824,36.1838704 C6.56026982,34.3595301 5.61431561,31.8595083 5.61431561,28.9540775 L5.61431561,15.1026051 C5.61431561,9.22417531 9.53326877,5.30522214 15.4116985,5.30522214 L29.3307391,5.30522214 C32.1686017,5.30522214 34.6686236,6.25117636 36.4253957,8.07551662 Z M22.3712188,27.6027143 C19.3306517,27.6027143 16.8306298,25.1026925 16.8306298,22.0621253 C16.8306298,19.0215582 19.3306517,16.5215364 22.3712188,16.5215364 C25.4117859,16.5215364 27.9118078,19.0215582 27.9118078,22.0621253 C27.9118078,25.1026925 25.4117859,27.6027143 22.3712188,27.6027143 Z M31.2226475,15.3053095 C30.1404585,15.3053095 29.2631709,14.428022 29.2631709,13.345833 C29.2631709,12.2636439 30.1404585,11.3863564 31.2226475,11.3863564 C32.3048365,11.3863564 33.1821241,12.2636439 33.1821241,13.345833 C33.1821241,14.428022 32.3048365,15.3053095 31.2226475,15.3053095 Z M36.0199867,29.0216456 L36.155123,29.0216456 L36.155123,15.1026051 C36.155123,13.1431285 35.4794415,11.4539245 34.3307828,10.2376977 C33.1145559,9.02147084 31.425352,8.41335741 29.3983072,8.41335741 L15.4792667,8.41335741 C13.4522219,8.41335741 11.6954498,9.02147084 10.5467911,10.1701295 C9.3305643,11.3863564 8.72245088,13.0755603 8.72245088,15.1026051 L8.72245088,28.9540775 C8.72245088,31.0486904 9.3305643,32.7378943 10.5467911,33.9541212 C11.763018,35.1027798 13.4522219,35.7108933 15.4792667,35.7108933 L29.2631709,35.7108933 C31.2902157,35.7108933 32.9794196,35.1027798 34.1956465,33.9541212 C35.4118733,32.8054625 36.0199867,31.1162585 36.0199867,29.0216456 Z"/>
</svg>
