<svg xmlns="http://www.w3.org/2000/svg" width="44" height="44" viewBox="0 0 44 44">
  <path d="M14.5,35 C16.49375,35 18.125,33.3846154 18.125,31.4102564 L10.875,31.4102564 C10.875,33.3846154 12.488125,35 14.5,35 Z M25.375,24.2307692 L25.375,15.2564103 C25.375,9.74615385 22.4025,5.13333333 17.21875,3.91282051 L17.21875,2.69230769 C17.21875,1.2025641 16.004375,0 14.5,0 C12.995625,0 11.78125,1.2025641 11.78125,2.69230769 L11.78125,3.91282051 C6.579375,5.13333333 3.625,9.72820513 3.625,15.2564103 L3.625,24.2307692 L0,27.8205128 L0,29.6153846 L29,29.6153846 L29,27.8205128 L25.375,24.2307692 Z" transform="translate(8 5)"/>
</svg>
