<svg xmlns="http://www.w3.org/2000/svg" width="196" height="122" viewBox="0 0 196 122">
  <g fill="none" fill-rule="evenodd">
    <path fill="#23988D" d="M79.2484008,13.6229357 L88.6720279,-1.42108547e-14 C89.5914645,0.63285849 90.5104225,1.26619461 91.4293805,1.8990531 L82.320688,15.0668084 C82.5331971,15.1752302 82.7447488,15.2850848 82.9553434,15.3963724 C90.5783871,19.4237406 97.1972778,25.3386987 102.078764,32.466357 L102.133805,32.5475539 L99.3640085,34.4289348 C92.4924043,24.3538276 81.9344385,16.9348156 69.9664465,14.0184126 C59.92348,11.5710414 49.1295525,12.3199637 39.5385985,16.1624894 C27.7480803,20.8857631 17.9333696,30.2663976 12.6843964,41.8049602 C8.04145681,52.0114153 7.00403939,63.8179278 9.80949371,74.7379608 C13.3192432,88.3995845 22.9092399,100.362712 35.6943866,106.794273 C39.9316924,108.925788 44.4844592,110.443741 49.1558769,111.291294 L49.2932419,111.315987 L48.7035772,114.607138 C38.9571661,112.867422 29.7724682,108.300476 22.4058711,101.679726 L12.9906678,115.290339 L10.2334588,113.390951 L19.9571352,99.3343762 C19.3820686,98.7473701 18.8204991,98.1468471 18.2730968,97.533237 L2.73160264,120 L1.94383547,119.457318 L17.6234127,96.7909537 C16.8157348,95.8505499 16.0409383,94.8808674 15.3015122,93.8833869 C7.91787611,83.9224808 4.19839362,71.3721089 5.01344235,58.8524962 C5.60784544,49.721184 8.62279347,40.7618183 13.6753873,33.126918 C21.6251876,21.1140698 34.5373132,12.561644 48.847643,10.0569573 C51.8749395,9.52726665 54.9486626,9.26409304 58.0128132,9.25692861 C58.0774274,9.25692861 58.141563,9.25692861 58.2061772,9.25692861 C64.2516764,9.27507851 70.3139275,10.3282506 76.0296547,12.3591293 L80.3827396,6.06636656 C80.6450256,6.24691034 80.9077901,6.42793175 81.1705547,6.60895316 L76.9577066,12.6987235 C77.7282912,12.9886444 78.492175,13.2967151 79.2484008,13.6229357 Z M106.140845,62.3444422 C106.140845,88.8219518 84.6314845,110.286315 58.0989655,110.286315 C31.5663986,110.286315 10.0573252,88.8219518 10.0573252,62.3444422 C10.0573252,35.8675535 31.5663986,14.4033816 58.0989655,14.4033816 C84.6314845,14.4033816 106.140845,35.8675535 106.140845,62.3444422 Z M48.4969553,6.80812447 C35.3371417,9.06730987 23.2665327,16.0889345 14.7921605,26.1845797 C6.59242278,35.9530491 1.84246292,48.5080063 1.64029216,61.4484101 C1.63564951,61.7469282 1.6334957,62.045924 1.63330425,62.3449198 L0.676056338,62.3439646 C0.682900661,52.7125748 3.15934887,43.0014209 7.88671769,34.5225501 C13.5208396,24.4178299 22.3041157,16.0645754 32.691835,10.9420039 C37.6041441,8.51946935 42.8685768,6.81290076 48.2557288,5.88056886 L48.3346539,5.86671761 C48.3887384,6.1805199 48.4428229,6.49432218 48.4969553,6.80812447 Z M24.2921281,75.2794011 L28.869209,75.2794011 L28.869209,56.810632 L34.8393728,56.810632 L34.8393728,52.7732337 L18.2556749,52.7732337 L18.2556749,56.810632 L24.2921281,56.810632 L24.2921281,75.2794011 Z M50.3285055,75.2794011 L54.9055864,75.2794011 L54.9055864,67.7330531 L59.3170634,67.7330531 L61.937051,75.2794011 L66.9453721,75.2794011 L63.7280618,66.6736719 C65.784709,65.3831182 67.0449258,63.2977898 67.0449258,60.1865141 C67.0449258,55.0563005 64.2258307,52.7732337 59.0849308,52.7732337 L50.3285055,52.7732337 L50.3285055,75.2794011 Z M54.9055864,63.8274804 L54.9055864,56.6778511 L59.0849308,56.6778511 C61.2736782,56.6778511 62.3682912,58.1011857 62.3682912,60.2529046 C62.3682912,62.2384085 61.4397607,63.8274804 59.1509809,63.8274804 L54.9055864,63.8274804 Z M81.3399875,75.2794011 L85.9170684,75.2794011 L86.8125739,71.2082821 L94.7065188,71.2082821 L95.6020242,75.2794011 L100.179105,75.2794011 L95.1047339,52.7732337 L86.4148373,52.7732337 L81.3399875,75.2794011 Z M87.6750542,67.2363189 L89.9633554,56.5455479 L91.5557373,56.5455479 L93.8440384,67.2363189 L87.6750542,67.2363189 Z"/>
    <path fill="#333132" d="M118.147337,75.505618 L112.901408,52.5842697 L117.715646,52.5842697 L121.633443,71.4605769 L123.127352,71.4605769 L127.045628,52.5842697 L131.859866,52.5842697 L126.613937,75.505618 L118.147337,75.505618 Z M147.464455,75.505618 L147.464455,52.5842697 L162.073424,52.5842697 L162.073424,56.6285325 L152.046797,56.6285325 L152.046797,61.9881292 L160.081227,61.9881292 L160.081227,65.9657498 L152.046797,65.9657498 L152.046797,71.4605769 L162.073424,71.4605769 L162.073424,75.505618 L147.464455,75.505618 Z M178.474797,75.505618 L178.474797,52.5842697 L183.056659,52.5842697 L183.056659,71.3929617 L191.323944,71.3929617 L191.323944,75.505618 L178.474797,75.505618 Z"/>
    <path fill="#23988D" d="M188.765435,111.290615 C187.730811,111.88912 186.444187,112.187402 184.90699,112.187402 C183.313212,112.187402 182.082218,111.805633 181.21591,111.040295 C180.349127,110.275526 179.915973,109.224961 179.915973,107.889783 C179.915973,107.305611 179.971603,106.596278 180.083814,105.761787 C180.195074,104.927295 180.362915,103.981976 180.586862,102.924552 L181.300068,99.6282571 C181.411328,99.0721815 181.565381,98.328603 181.761275,97.396339 C181.956693,96.46469 182.05464,95.6507269 182.05464,94.9551121 C182.05464,94.4270389 181.950512,93.8983035 181.74083,93.3695681 C181.531147,92.8414949 181.075646,92.576796 180.377179,92.576796 C179.70629,92.576796 179.042057,92.9044058 178.385432,93.5576385 C177.727856,94.2115336 177.112597,95.0385518 176.54013,96.0399704 C175.966712,97.0413418 175.476977,98.0707629 175.071876,99.1275715 C174.666299,100.185042 174.393379,101.116644 174.253591,101.923133 L173.918384,103.675557 C173.806173,104.25973 173.673516,105.066787 173.519939,106.095593 C173.366362,107.125014 173.226574,108.175626 173.100574,109.246105 C172.97505,110.317246 172.883284,111.200316 172.827654,111.895316 L166.327017,111.895316 C166.382647,111.172314 166.494858,110.240665 166.662224,109.099754 C166.830065,107.959506 167.019302,106.804925 167.228985,105.636627 C167.438668,104.468329 167.640743,103.45324 167.836637,102.590746 L168.465685,99.6700243 C168.717684,98.4742914 168.898839,97.4941111 169.01105,96.7287266 C169.12231,95.9640043 169.178891,95.3866904 169.178891,94.9968319 C169.178891,94.4961463 169.101865,93.9892168 168.948288,93.4741988 C168.79471,92.9597957 168.409579,92.7020029 167.794795,92.7020029 C167.095378,92.7020029 166.4107,93.0015156 165.739811,93.5993584 C165.068446,94.1978634 164.44653,94.9625857 163.873588,95.8942347 C163.30017,96.8264987 162.81091,97.7861501 162.405809,98.7732364 C162.000233,99.7609376 161.713524,100.644008 161.545683,101.422448 L159.196857,111.895316 L152.905427,111.895316 L156.428666,95.2889183 C156.484296,95.0385518 156.547533,94.7259366 156.617903,94.3504106 C156.687322,93.9748845 156.722507,93.6896568 156.722507,93.4947749 C156.722507,92.7437228 156.554665,92.2641809 156.218983,92.0555815 C155.883301,91.8469349 155.309883,91.7423042 154.499205,91.7423042 L153.744633,91.7423042 L154.122157,89.5309149 L163.852191,89.5309149 L163.055302,93.786814 L163.349143,93.786814 C164.466975,92.0904427 165.648996,90.8872835 166.893303,90.1779512 C168.137134,89.4686189 169.583992,89.1136689 171.233876,89.1136689 C172.939389,89.1136689 174.120934,89.5589173 174.778511,90.4488465 C175.435136,91.3393906 175.791263,92.437919 175.847369,93.7450941 L175.847369,93.9954606 L176.099368,93.9954606 C177.133517,92.3264769 178.273221,91.074739 179.517528,90.2402472 C180.76136,89.4057553 182.278112,88.9885093 184.068259,88.9885093 C185.80135,88.9885093 187.003816,89.4686189 187.675181,90.4283177 C188.34607,91.3879691 188.681752,92.5076886 188.681752,93.786814 C188.681752,94.5104786 188.590937,95.2963919 188.409308,96.1446012 C188.227202,96.9933781 188.066018,97.7786765 187.926705,98.5017262 L186.961974,102.966272 C186.794133,103.717277 186.653869,104.426609 186.542609,105.094221 C186.430398,105.761787 186.374768,106.387679 186.374768,106.971805 C186.374768,108.223542 186.863552,108.849435 187.842546,108.849435 C188.289964,108.849435 188.695541,108.765995 189.059276,108.599068 C189.42206,108.432189 189.841426,108.196155 190.317372,107.889783 L191.323944,109.308401 C190.653054,110.032018 189.799584,110.692772 188.765435,111.290615 Z M134.461914,111.603277 C133.524762,112.075913 132.371745,112.312562 131.001913,112.312562 C129.687237,112.312562 128.583193,111.978756 127.688357,111.311191 C126.793521,110.643578 126.122157,109.73312 125.675214,108.57854 C125.227796,107.424574 125.004325,106.123643 125.004325,104.676976 C125.004325,103.3698 125.185955,102.000377 125.54969,100.56738 C125.912474,99.1350451 126.457839,97.7444303 127.185309,96.3949204 C127.911829,95.0460254 128.806665,93.8223374 129.869342,92.7231467 C130.932019,91.6246182 132.15493,90.7484065 133.539026,90.0945114 C134.923121,89.4412314 136.467926,89.1136689 138.173915,89.1136689 C139.26417,89.1136689 140.361081,89.2668783 141.466075,89.5726347 C142.570118,89.8790534 143.444033,90.2128123 144.087821,90.5740534 L146.310647,89.5726347 L148.533473,89.5726347 L145.765282,102.590746 C145.681599,102.897117 145.583177,103.328081 145.471916,103.884204 C145.359705,104.440941 145.261758,105.004538 145.178076,105.574331 C145.094393,106.144786 145.052076,106.610611 145.052076,106.971805 C145.052076,107.667419 145.184257,108.181823 145.45052,108.515629 C145.715833,108.849435 146.072436,109.016314 146.52033,109.016314 C146.911642,109.016314 147.289166,108.932875 147.652426,108.765995 C148.015685,108.599068 148.420786,108.390469 148.868204,108.140103 L149.791569,109.809086 C149.092627,110.365824 148.190183,110.921947 147.08614,111.47807 C145.981146,112.034193 144.675027,112.312562 143.164932,112.312562 C141.934414,112.312562 140.942106,112.027334 140.187058,111.457541 C139.432011,110.887701 139.054487,110.059453 139.054487,108.974595 C139.054487,108.168152 139.152434,107.263891 139.348328,106.26252 L139.054487,106.26252 C138.355545,107.57031 137.649471,108.668838 136.936265,109.558767 C136.223534,110.449311 135.398116,111.130594 134.461914,111.603277 Z M132.029406,108.056663 C132.46256,108.668838 133.000793,108.974595 133.644105,108.974595 C134.258888,108.974595 134.887936,108.718032 135.531724,108.203014 C136.17456,107.68861 136.78982,106.992996 137.377026,106.116784 C137.964232,105.240572 138.488201,104.25973 138.949408,103.174871 C139.41109,102.090013 139.753429,100.991484 139.977376,99.8786236 L141.445154,92.9523221 C141.165577,92.5631259 140.788054,92.2710396 140.313058,92.0761104 C139.837112,91.8817961 139.320275,91.7840713 138.761122,91.7840713 C137.782127,91.7840713 136.90108,92.0761104 136.11893,92.6602831 C135.33583,93.2444085 134.650676,94.0234631 134.06347,94.9968319 C133.476263,95.9708157 132.979396,97.0276717 132.574295,98.16792 C132.168719,99.3087833 131.868221,100.456553 131.672803,101.610518 C131.476909,102.765099 131.379437,103.800764 131.379437,104.718695 C131.379437,106.332242 131.595301,107.445103 132.029406,108.056663 Z M123.670154,85.0788567 L118.981536,107.235888 C118.669152,108.730472 118.145658,110.025207 117.412482,111.119998 C116.678831,112.214175 115.812999,113.120281 114.815461,113.837702 C113.817448,114.555738 112.717684,115.087595 111.515218,115.434457 C110.313228,115.781318 109.080807,115.955056 107.818908,115.955056 C107.157528,115.955056 106.601227,115.918965 106.150481,115.847351 C105.699734,115.775736 105.24566,115.673565 104.788732,115.542162 L105.31175,113.515106 C105.46818,113.574895 105.645055,113.625366 105.843802,113.667701 C106.042073,113.709421 106.249379,113.744897 106.465718,113.774791 C106.682533,113.804686 106.898396,113.825877 107.115211,113.837702 C107.33155,113.849528 107.530297,113.855771 107.7105,113.855771 C108.347631,113.855771 108.940068,113.741822 109.486859,113.515106 C110.034126,113.287823 110.53242,112.914142 110.983642,112.393542 C111.434388,111.87351 111.839964,111.191613 112.200847,110.348417 C112.561254,109.505175 112.874113,108.467665 113.138475,107.235888 L117.89984,84.9355807 C117.947387,84.8035624 117.986851,84.6547521 118.016806,84.4865955 C118.04676,84.319716 118.061975,84.1883126 118.061975,84.0923853 C118.061975,83.8289637 117.99541,83.6141206 117.863229,83.445964 C117.731048,83.2790845 117.547991,83.1501408 117.313109,83.0604573 C117.079177,82.9708211 116.795797,82.9110321 116.465344,82.8811375 C116.134892,82.851243 115.777338,82.8362958 115.392682,82.8362958 L114.923868,82.8362958 L115.320411,80.8988764 L128.070636,80.8988764 L127.65555,82.8362958 L127.186736,82.8362958 C126.777831,82.8362958 126.384141,82.8630684 126.005666,82.9172285 C125.626716,82.9708211 125.281524,83.0754045 124.96914,83.2311208 C124.655805,83.3867899 124.385737,83.6141206 124.157036,83.9124034 C123.928334,84.2119634 123.766199,84.6005446 123.670154,85.0788567 Z"/>
  </g>
</svg>
