<svg class="c-icon-set" xmlns="http://www.w3.org/2000/svg">
<symbol id="arrow-down" viewBox="0 0 44 44"><title>arrow-down icon</title> <polygon fill-rule="evenodd" points="31.929 22.446 12 7 12 38" transform="rotate(90 21.964 22.5)"/> </symbol>
<symbol id="arrow" viewBox="0 0 44 44"><title>arrow icon</title> <polygon fill-rule="evenodd" points="43 24.47 31.908 16 31.908 23.286 2 23.286 2 25.714 31.908 25.714 31.908 33"/> </symbol>
<symbol id="check" viewBox="0 0 44 44"><title>check icon</title> <path d="M22,3.66666667 C11.88,3.66666667 3.66666667,11.88 3.66666667,22 C3.66666667,32.12 11.88,40.3333333 22,40.3333333 C32.12,40.3333333 40.3333333,32.12 40.3333333,22 C40.3333333,11.88 32.12,3.66666667 22,3.66666667 Z M18.3333333,31.1666667 L9.16666667,22 L11.7516667,19.415 L18.3333333,25.9783333 L32.2483333,12.0633333 L34.8333333,14.6666667 L18.3333333,31.1666667 Z"/> </symbol>
<symbol id="date" viewBox="0 0 44 44"><title>date icon</title> <path d="M16.6158963,20.2052988 L13.0264938,20.2052988 L13.0264938,23.7947012 L16.6158963,23.7947012 L16.6158963,20.2052988 Z M23.7947012,20.2052988 L20.2052988,20.2052988 L20.2052988,23.7947012 L23.7947012,23.7947012 L23.7947012,20.2052988 Z M30.9735062,20.2052988 L27.3841037,20.2052988 L27.3841037,23.7947012 L30.9735062,23.7947012 L30.9735062,20.2052988 Z M34.5629087,7.64239005 L32.7682075,7.64239005 L32.7682075,4.05298756 L29.178805,4.05298756 L29.178805,7.64239005 L14.821195,7.64239005 L14.821195,4.05298756 L11.2317925,4.05298756 L11.2317925,7.64239005 L9.43709129,7.64239005 C7.44497291,7.64239005 5.86563581,9.25762117 5.86563581,11.2317925 L5.8476888,36.35761 C5.8476888,38.3317813 7.44497291,39.9470124 9.43709129,39.9470124 L34.5629087,39.9470124 C36.5370801,39.9470124 38.1523112,38.3317813 38.1523112,36.35761 L38.1523112,11.2317925 C38.1523112,9.25762117 36.5370801,7.64239005 34.5629087,7.64239005 Z M34.5629087,36.35761 L9.43709129,36.35761 L9.43709129,16.6158963 L34.5629087,16.6158963 L34.5629087,36.35761 Z"/> </symbol>
<symbol id="dribbble" viewBox="0 0 44 44"><title>dribbble icon</title> <path fill-rule="evenodd" d="M22.5,1.5 C10.90625,1.5 1.5,10.90625 1.5,22.5 C1.5,34.1046875 10.90625,43.5 22.5,43.5 C34.09375,43.5 43.5,34.1046875 43.5,22.5 C43.5,10.90625 34.09375,1.5 22.5,1.5 L22.5,1.5 Z M22.5,39.9453125 C12.8640625,39.9453125 5.0546875,32.1359375 5.0546875,22.5 C5.0546875,12.8640625 12.8640625,5.0546875 22.5,5.0546875 C32.1359375,5.0546875 39.9453125,12.8640625 39.9453125,22.5 C39.9453125,32.1359375 32.1359375,39.9453125 22.5,39.9453125 Z M28.0015625,21.4828125 C30.5609375,21.2421875 33.56875,21.165625 36.4453125,21.2203125 C36.19375,18.4421875 35.1328125,15.89375 33.4921875,13.8265625 C31.6875,15.45625 29.3359375,16.9 26.56875,18.0921875 C27.071875,19.1859375 27.5421875,20.3234375 28.0015625,21.4828125 Z M31.184375,11.51875 C28.8,9.6265625 25.78125,8.5 22.5,8.5 C21.9421875,8.5 21.384375,8.5328125 20.8375,8.5984375 C22.346875,10.534375 23.7578125,12.7109375 25.059375,15.10625 C27.4328125,14.1 29.5,12.8859375 31.184375,11.51875 Z M17.0203125,9.615625 C13.290625,11.2015625 10.38125,14.3625 9.1453125,18.2671875 C13.640625,18.190625 17.8515625,17.5015625 21.5484375,16.375 C20.1703125,13.859375 18.6390625,11.5953125 17.0203125,9.615625 Z M36.390625,24.271875 C33.9515625,24.20625 31.359375,24.25 29.0734375,24.4359375 C29.521875,25.78125 29.959375,27.159375 30.33125,28.58125 C30.746875,30.178125 31.096875,31.7640625 31.38125,33.328125 C34.071875,31.1078125 35.93125,27.903125 36.390625,24.271875 Z M22.71875,22.5109375 C23.1453125,22.3359375 23.68125,22.1828125 24.2828125,22.040625 C23.9109375,21.1328125 23.50625,20.246875 23.1015625,19.3828125 C18.825,20.7609375 13.8484375,21.603125 8.521875,21.7125 C8.5109375,21.975 8.5,22.2375 8.5,22.5109375 C8.5,25.69375 9.5609375,28.625 11.34375,30.9765625 C14.0671875,27.421875 18.0046875,24.490625 22.71875,22.5109375 Z M25.409375,24.928125 C24.6546875,25.0921875 23.9984375,25.278125 23.50625,25.5078125 C19.4484375,27.3453125 16.0359375,30.0578125 13.61875,33.328125 C16.0359375,35.31875 19.13125,36.5 22.5,36.5 C24.5234375,36.5 26.4375,36.0734375 28.165625,35.3078125 C27.8703125,33.65625 27.509375,31.99375 27.071875,30.309375 C26.590625,28.4609375 26.021875,26.65625 25.409375,24.928125 Z"/> </symbol>
<symbol id="external" viewBox="0 0 44 44"><title>external icon</title> <path d="M18.4891667,28.5725 L21.0833333,31.1666667 L30.25,22 L21.0833333,12.8333333 L18.4891667,15.4275 L23.2283333,20.1666667 L5.5,20.1666667 L5.5,23.8333333 L23.2283333,23.8333333 L18.4891667,28.5725 Z M34.8333333,5.5 L9.16666667,5.5 C7.14083333,5.5 5.5,7.14083333 5.5,9.16666667 L5.5,16.5 L9.16666667,16.5 L9.16666667,9.16666667 L34.8333333,9.16666667 L34.8333333,34.8333333 L9.16666667,34.8333333 L9.16666667,27.5 L5.5,27.5 L5.5,34.8333333 C5.5,36.8591667 7.14083333,38.5 9.16666667,38.5 L34.8333333,38.5 C36.8591667,38.5 38.5,36.8591667 38.5,34.8333333 L38.5,9.16666667 C38.5,7.14083333 36.8591667,5.5 34.8333333,5.5 Z"/> </symbol>
<symbol id="github" viewBox="0 0 44 44"><title>github icon</title> <path fill-rule="evenodd" d="M9.014464,32.6801944 C9.01557275,32.6766771 9.01662066,32.6731219 9.01760651,32.669529 C9.08023979,32.4412766 8.95497322,32.1369273 8.70444636,31.9847489 C8.45392575,31.8325705 8.1407656,31.9086521 8.07813232,32.1369197 C7.95287202,32.3651798 8.1407656,32.669529 8.39129247,32.8217074 C8.57570914,32.9337283 8.79406124,32.9220588 8.9214418,32.8170489 C8.86530031,32.9845026 8.93908873,33.2120517 9.11606579,33.3759091 C9.28679874,33.5866792 9.62827034,33.6920669 9.7990033,33.5339906 C9.96973625,33.428603 9.91282337,33.1124505 9.68517753,32.8489866 C9.46288178,32.64317 9.18631681,32.5378406 9.014464,32.6801944 Z M22.1761657,0.89053863 C10.0880504,0.89053863 0.316223754,10.6623652 0.316223754,22.7504805 C0.316223754,32.413732 6.57743171,40.5931115 15.2634998,43.4884679 C16.3492583,43.7056191 16.7473695,43.0179714 16.7473695,42.4389006 C16.7473695,41.9322128 16.7111802,40.1950007 16.7111802,38.3854038 C10.6309297,39.6883125 9.36421381,35.7795826 9.36421381,35.7795826 C8.38703043,33.2461473 6.93935,32.5946893 6.93935,32.5946893 C4.94879394,31.2555876 7.08411805,31.2555876 7.08411805,31.2555876 C9.29182798,31.4003557 10.4499723,33.4994905 10.4499723,33.4994905 C12.4043355,36.8291482 15.5530359,35.8881577 16.8197553,35.3090856 C17.0007127,33.8976017 17.5797849,32.9204183 18.1950499,32.377539 C13.3453259,31.8708527 8.24226239,29.9888718 8.24226239,21.5923362 C8.24226239,19.2036689 9.11086702,17.2493021 10.4861616,15.7292395 C10.2690114,15.1863602 9.50897824,12.9424574 10.7033155,9.93852863 C10.7033155,9.93852863 12.5491035,9.35945646 16.7111802,12.1824279 C18.4483931,11.7119344 20.330374,11.4585913 22.1761657,11.4585913 C24.0219537,11.4585913 25.9039383,11.7119344 27.6411511,12.1824279 C31.8032242,9.35945646 33.6490122,9.93852863 33.6490122,9.93852863 C34.8433495,12.9424574 34.0833164,15.1863602 33.8661661,15.7292395 C35.27765,17.2493021 36.1100654,19.2036653 36.1100654,21.5923362 C36.1100654,29.9888718 31.0069982,31.8346598 26.1210849,32.377539 C26.9173073,33.0651863 27.6049546,34.3680951 27.6049546,36.431037 C27.6049546,39.3625835 27.5687653,41.7150615 27.5687653,42.4389006 C27.5687653,43.0179714 27.9668765,43.7056191 29.052635,43.4884679 C37.7387067,40.5931115 43.9999002,32.413732 43.9999002,22.7504769 C44.0360931,10.6623652 34.2280844,0.89053863 22.1761657,0.89053863 Z M10.6004794,34.7215152 C10.3909409,34.8610874 10.0766305,34.7215152 9.91947798,34.4889042 C9.7099395,34.2562885 9.7099395,33.9306293 9.91947798,33.8375812 C10.1290165,33.6980136 10.4433216,33.8375812 10.6004794,34.0701969 C10.8100126,34.3028125 10.8100126,34.5819476 10.6004794,34.7215152 Z M11.6927605,35.9221188 C11.5618885,36.1036083 11.2565148,36.0582348 10.9947708,35.8313717 C10.776648,35.6045132 10.6894014,35.2869075 10.8638989,35.150787 C10.9947708,34.9692974 11.3001402,35.0146709 11.5618885,35.241534 C11.780007,35.423019 11.8236324,35.7406292 11.6927605,35.9221188 Z M13.2433893,36.6546155 C13.2040546,36.9231423 12.9287195,37.0305497 12.6533844,36.9231423 C12.3780453,36.8157294 12.2207143,36.4934963 12.2600451,36.2786813 C12.2993798,36.0101546 12.5747149,35.9027472 12.8500501,36.0101546 C13.1253891,36.1175675 13.2827201,36.3860888 13.2433893,36.6546155 Z M14.9920891,36.7477286 C14.9920891,37.0242029 14.7624048,37.2453812 14.4944346,37.2453812 C14.2264683,37.2453812 13.9967839,37.0242029 13.9967839,36.7477286 C13.9967839,36.4712544 14.2264683,36.250076 14.4944346,36.250076 C14.7624009,36.250076 14.9920891,36.4712544 14.9920891,36.7477286 Z M16.6834764,36.4153634 C16.722888,36.6860704 16.5258339,36.9567827 16.2499646,37.0109263 C15.9740873,37.0650644 15.7376256,36.9026392 15.698214,36.6319322 C15.6588063,36.3612199 15.8558564,36.0905075 16.1317298,36.0363694 C16.4076031,35.9822204 16.6440687,36.1446511 16.6834764,36.4153634 Z"/> </symbol>
<symbol id="home" viewBox="0 0 44 44"><title>home icon</title> <polygon fill-rule="evenodd" points="18.8 38 18.8 26.706 26.2 26.706 26.2 38 35.45 38 35.45 22.941 41 22.941 22.5 6 4 22.941 9.55 22.941 9.55 38"/> </symbol>
<symbol id="info" viewBox="0 0 44 44"><title>info icon</title> <path d="M22,3.66666667 C11.8708333,3.66666667 3.66666667,11.8708333 3.66666667,22 C3.66666667,32.1291667 11.8708333,40.3333333 22,40.3333333 C32.1291667,40.3333333 40.3333333,32.1291667 40.3333333,22 C40.3333333,11.8708333 32.1291667,3.66666667 22,3.66666667 Z M23.8333333,31.1666667 L20.1666667,31.1666667 L20.1666667,20.1666667 L23.8333333,20.1666667 L23.8333333,31.1666667 Z M23.8333333,16.5 L20.1666667,16.5 L20.1666667,12.8333333 L23.8333333,12.8333333 L23.8333333,16.5 Z"/> </symbol>
<symbol id="instagram" viewBox="0 0 44 44"><title>instagram icon</title> <path fill-rule="evenodd" d="M22.3712188,13.4134011 C17.6414477,13.4134011 13.7224946,17.2647861 13.7224946,22.0621253 C13.7224946,26.8594646 17.5738796,30.7108496 22.3712188,30.7108496 C27.168558,30.7108496 31.019943,26.7918964 31.019943,22.0621253 C31.019943,17.3323543 27.1009899,13.4134011 22.3712188,13.4134011 Z M36.4253957,8.07551662 C38.1821678,9.83228873 39.128122,12.2647424 39.128122,15.1026051 L39.128122,29.0216456 C39.128122,31.9270764 38.1821678,34.4270983 36.3578275,36.1838704 C34.6010554,37.8730743 32.1686017,38.8190285 29.2631709,38.8190285 L15.4792667,38.8190285 C12.7089722,38.8190285 10.2765185,37.9406425 8.45217824,36.1838704 C6.56026982,34.3595301 5.61431561,31.8595083 5.61431561,28.9540775 L5.61431561,15.1026051 C5.61431561,9.22417531 9.53326877,5.30522214 15.4116985,5.30522214 L29.3307391,5.30522214 C32.1686017,5.30522214 34.6686236,6.25117636 36.4253957,8.07551662 Z M22.3712188,27.6027143 C19.3306517,27.6027143 16.8306298,25.1026925 16.8306298,22.0621253 C16.8306298,19.0215582 19.3306517,16.5215364 22.3712188,16.5215364 C25.4117859,16.5215364 27.9118078,19.0215582 27.9118078,22.0621253 C27.9118078,25.1026925 25.4117859,27.6027143 22.3712188,27.6027143 Z M31.2226475,15.3053095 C30.1404585,15.3053095 29.2631709,14.428022 29.2631709,13.345833 C29.2631709,12.2636439 30.1404585,11.3863564 31.2226475,11.3863564 C32.3048365,11.3863564 33.1821241,12.2636439 33.1821241,13.345833 C33.1821241,14.428022 32.3048365,15.3053095 31.2226475,15.3053095 Z M36.0199867,29.0216456 L36.155123,29.0216456 L36.155123,15.1026051 C36.155123,13.1431285 35.4794415,11.4539245 34.3307828,10.2376977 C33.1145559,9.02147084 31.425352,8.41335741 29.3983072,8.41335741 L15.4792667,8.41335741 C13.4522219,8.41335741 11.6954498,9.02147084 10.5467911,10.1701295 C9.3305643,11.3863564 8.72245088,13.0755603 8.72245088,15.1026051 L8.72245088,28.9540775 C8.72245088,31.0486904 9.3305643,32.7378943 10.5467911,33.9541212 C11.763018,35.1027798 13.4522219,35.7108933 15.4792667,35.7108933 L29.2631709,35.7108933 C31.2902157,35.7108933 32.9794196,35.1027798 34.1956465,33.9541212 C35.4118733,32.8054625 36.0199867,31.1162585 36.0199867,29.0216456 Z"/> </symbol>
<symbol id="location" viewBox="0 0 44 44"><title>location icon</title> <path d="M22,3.66666667 C14.9141667,3.66666667 9.16666667,9.41416667 9.16666667,16.5 C9.16666667,26.125 22,40.3333333 22,40.3333333 C22,40.3333333 34.8333333,26.125 34.8333333,16.5 C34.8333333,9.41416667 29.0858333,3.66666667 22,3.66666667 Z M22,21.0833333 C19.47,21.0833333 17.4166667,19.03 17.4166667,16.5 C17.4166667,13.97 19.47,11.9166667 22,11.9166667 C24.53,11.9166667 26.5833333,13.97 26.5833333,16.5 C26.5833333,19.03 24.53,21.0833333 22,21.0833333 Z"/> </symbol>
<symbol id="medium" viewBox="0 0 44 44"><title>medium icon</title> <g fill-rule="evenodd" transform="translate(1 5)"> <path fill-opacity=".6" d="M19.4193548,14.4760002 L27.8023987,0.664870256 C28.1864688,0.0645312729 29.0319756,-0.172812045 29.6813029,0.134338132 L42.6181107,6.37507128 C42.7010035,6.41695539 42.7313977,6.51468499 42.6830434,6.58449185 L28.4354839,28.7 L19.4193548,14.4760002 Z"/> <path fill-opacity=".4" d="M28.4354839,28.7 L40.5143055,34.5542778 C41.8240122,35.1965009 42.8864219,34.7497371 42.8864219,33.5769817 L42.7364535,6.50999947 L28.4354839,28.7 Z"/> <path fill-opacity=".7" d="M1.14890982,1.2675416 L14.2667003,21.8270575 L28.4354839,28.7 L14.2984759,6.38438431 C14.2777527,6.35227316 14.2487402,6.32574656 14.2155831,6.30899291 L1.96678576,0.403332691 C0.880889664,-0.121614883 0.512016567,0.267907387 1.14890982,1.2675416 Z"/> <path d="M14.2755271,33.5845916 C14.2755271,34.7573467 13.3871922,35.2878789 12.2999146,34.7629313 L1.18536748,29.4017646 C0.533277214,29.0890299 0,28.2569321 0,27.5518828 L0,1.27378907 C0,0.335584894 0.7114968,-0.0888408053 1.58187153,0.331396483 L14.199542,6.41855453 C14.2465146,6.43949659 14.2755271,6.48556912 14.2755271,6.53583005 L14.2755271,33.5790069 L14.2755271,33.5845916 L14.2755271,33.5845916 L14.2755271,33.5845916 Z"/> </g> </symbol>
<symbol id="notifications" viewBox="0 0 44 44"><title>notifications icon</title> <path d="M14.5,35 C16.49375,35 18.125,33.3846154 18.125,31.4102564 L10.875,31.4102564 C10.875,33.3846154 12.488125,35 14.5,35 Z M25.375,24.2307692 L25.375,15.2564103 C25.375,9.74615385 22.4025,5.13333333 17.21875,3.91282051 L17.21875,2.69230769 C17.21875,1.2025641 16.004375,0 14.5,0 C12.995625,0 11.78125,1.2025641 11.78125,2.69230769 L11.78125,3.91282051 C6.579375,5.13333333 3.625,9.72820513 3.625,15.2564103 L3.625,24.2307692 L0,27.8205128 L0,29.6153846 L29,29.6153846 L29,27.8205128 L25.375,24.2307692 Z" transform="translate(8 5)"/> </symbol>
<symbol id="twitter" viewBox="0 0 44 44"><title>twitter icon</title> <path fill-rule="evenodd" d="M42.9375177,9.28456434 C41.3956297,9.97489773 39.7468719,10.4351098 38.0217785,10.6345329 C39.7926733,9.57603605 41.151371,7.88857148 41.7925444,5.87896769 C40.1285348,6.86075745 38.2965715,7.58175835 36.3425017,7.9652786 C34.7853314,6.29315545 32.5564534,5.25 30.0985991,5.25 C25.3660502,5.25 21.5342157,9.1004826 21.5342157,13.8560478 C21.5342157,14.5310398 21.6105514,15.1906903 21.7632073,15.8196427 C14.6338649,15.4514792 8.32889839,12.0305258 4.10014317,6.8300746 C3.36736091,8.10335142 2.93990586,9.57603605 2.93990586,11.1561107 C2.93990586,14.1475195 4.45126718,16.7707649 6.75647315,18.3201567 C5.35197559,18.2741324 4.03907773,17.8906275 2.87884194,17.2463184 L2.87884194,17.3537084 C2.87884194,21.5263302 5.82523049,24.9933017 9.74866002,25.7910098 C9.03114641,25.9904375 8.26783295,26.0978214 7.48925389,26.0978214 C6.93966796,26.0978214 6.40534915,26.0364603 5.87102881,25.9444163 C6.95493355,29.3653621 10.1303167,31.8505316 13.870553,31.9272341 C10.9394285,34.2283188 7.24499364,35.6089687 3.22996595,35.6089687 C2.54298384,35.6089687 1.85600187,35.5629475 1.18428626,35.486245 C4.97032039,37.9253933 9.47386858,39.3520652 14.3132737,39.3520652 C30.0680649,39.3520652 38.6782343,26.235885 38.6782343,14.8685358 C38.6782343,14.500357 38.6629672,14.1168367 38.6477001,13.7486732 C40.3422593,12.5214207 41.7925444,11.0027118 42.9375177,9.28456434 L42.9375177,9.28456434 Z"/> </symbol>
</svg>